<svg xmlns="http://www.w3.org/2000/svg" width="256" height="256" viewBox="0 0 100 100"><rect width="100" height="100" rx="20" fill="#1c173a"></rect><path fill="#fff" d="M33.98 28.97Q39.80 28.97 44.06 31.04Q48.32 33.11 50.54 36.89Q52.76 40.67 52.76 45.71L52.76 45.71Q52.76 47.99 52.34 50.09L52.34 50.09Q51.26 56.21 47.69 61.01Q44.12 65.81 38.63 68.54Q33.14 71.27 26.48 71.27L26.48 71.27L9.74 71.27L17.24 28.97L33.98 28.97ZM27.44 60.95Q32.60 60.95 36.02 58.10Q39.44 55.25 40.40 50.09L40.40 50.09Q40.64 48.89 40.64 47.51L40.64 47.51Q40.64 43.49 38.18 41.33Q35.72 39.17 31.28 39.17L31.28 39.17L27.26 39.17L23.36 60.95L27.44 60.95ZM71.36 71.69Q64.04 71.69 59.57 68.66Q55.10 65.63 55.10 59.81L55.10 59.81Q55.10 59.33 55.22 58.13L55.22 58.13L67.64 58.13Q67.46 60.17 68.48 61.31Q69.50 62.45 71.60 62.45L71.60 62.45Q73.34 62.45 74.39 61.67Q75.44 60.89 75.44 59.45L75.44 59.45Q75.44 57.77 73.91 56.69Q72.38 55.61 68.96 54.17L68.96 54.17Q65.54 52.73 63.32 51.44Q61.10 50.15 59.48 47.90Q57.86 45.65 57.86 42.29L57.86 42.29Q57.86 37.91 60.02 34.76Q62.18 31.61 66.05 29.96Q69.92 28.31 74.90 28.31L74.90 28.31Q79.40 28.31 82.88 29.72Q86.36 31.13 88.31 33.77Q90.26 36.41 90.26 40.01L90.26 40.01Q90.26 40.97 90.20 41.45L90.20 41.45L77.54 41.45Q77.60 41.15 77.60 40.61L77.60 40.61Q77.60 39.17 76.70 38.36Q75.80 37.55 74.24 37.55L74.24 37.55Q72.62 37.55 71.63 38.36Q70.64 39.17 70.64 40.61L70.64 40.61Q70.64 42.17 72.17 43.28Q73.70 44.39 76.94 45.89L76.94 45.89Q80.42 47.51 82.67 48.92Q84.92 50.33 86.54 52.67Q88.16 55.01 88.16 58.43L88.16 58.43Q88.16 62.21 86.12 65.24Q84.08 68.27 80.30 69.98Q76.52 71.69 71.36 71.69L71.36 71.69Z"></path></svg>